<svg xmlns="http://www.w3.org/2000/svg" xmlns:xlink="http://www.w3.org/1999/xlink" contentStyleType="text/css" data-diagram-type="DESCRIPTION" height="1569px" preserveAspectRatio="none" style="width:1320px;height:1569px;background:#FFFFFF;" version="1.1" viewBox="0 0 1320 1569" width="1320px" zoomAndPan="magnify"><?plantuml 1.2026.3beta6?><defs/><g><g class="title" data-source-line="15"><text fill="#000000" font-family="sans-serif" font-size="14" font-weight="700" lengthAdjust="spacing" textLength="445.6279" x="434.0095" y="22.9951">Weather Arbitrage Trading Bot &#8212; Architecture Overview</text></g><!--cluster cli--><g class="cluster" data-qualified-name="cli" data-source-line="17" id="ent0002"><path d="M395.5,43.2969 L478.0186,43.2969 A3.75,3.75 0 0 1 480.5186,45.7969 L487.5186,65.5938 L686.5,65.5938 A2.5,2.5 0 0 1 689,68.0938 L689,144.3969 A2.5,2.5 0 0 1 686.5,146.8969 L395.5,146.8969 A2.5,2.5 0 0 1 393,144.3969 L393,45.7969 A2.5,2.5 0 0 1 395.5,43.2969" fill="#F5F5F5" style="stroke:#1565C0;stroke-width:1.5;"/><line style="stroke:#1565C0;stroke-width:1.5;" x1="393" x2="487.5186" y1="65.5938" y2="65.5938"/><text fill="#000000" font-family="sans-serif" font-size="14" font-weight="700" lengthAdjust="spacing" textLength="81.5186" x="397" y="58.292">CLI / Entry</text></g><!--cluster sched--><g class="cluster" data-qualified-name="sched" data-source-line="22" id="ent0007"><path d="M8.5,195.8969 L88.5303,195.8969 A3.75,3.75 0 0 1 91.0303,198.3969 L98.0303,218.1937 L467.5,218.1937 A2.5,2.5 0 0 1 470,220.6937 L470,426.5769 A2.5,2.5 0 0 1 467.5,429.0769 L8.5,429.0769 A2.5,2.5 0 0 1 6,426.5769 L6,198.3969 A2.5,2.5 0 0 1 8.5,195.8969" fill="#F5F5F5" style="stroke:#1565C0;stroke-width:1.5;"/><line style="stroke:#1565C0;stroke-width:1.5;" x1="6" x2="98.0303" y1="218.1937" y2="218.1937"/><text fill="#000000" font-family="sans-serif" font-size="14" font-weight="700" lengthAdjust="spacing" textLength="79.0303" x="10" y="210.892">Scheduler</text></g><!--cluster engine_pkg--><g class="cluster" data-qualified-name="engine_pkg" data-source-line="32" id="ent0015"><path d="M320.5,478.0769 L440.8965,478.0769 A3.75,3.75 0 0 1 443.3965,480.5769 L450.3965,500.3738 L699.5,500.3738 A2.5,2.5 0 0 1 702,502.8738 L702,581.9769 A2.5,2.5 0 0 1 699.5,584.4769 L320.5,584.4769 A2.5,2.5 0 0 1 318,581.9769 L318,480.5769 A2.5,2.5 0 0 1 320.5,478.0769" fill="#F5F5F5" style="stroke:#1565C0;stroke-width:1.5;"/><line style="stroke:#1565C0;stroke-width:1.5;" x1="318" x2="450.3965" y1="500.3738" y2="500.3738"/><text fill="#000000" font-family="sans-serif" font-size="14" font-weight="700" lengthAdjust="spacing" textLength="119.3965" x="322" y="493.072">Trading Engine</text></g><!--cluster scanner_pkg--><g class="cluster" data-qualified-name="scanner_pkg" data-source-line="37" id="ent0020"><path d="M398.5,680.8569 L463.6621,680.8569 A3.75,3.75 0 0 1 466.1621,683.3569 L473.1621,703.1538 L985.5,703.1538 A2.5,2.5 0 0 1 988,705.6538 L988,980.6369 A2.5,2.5 0 0 1 985.5,983.1369 L398.5,983.1369 A2.5,2.5 0 0 1 396,980.6369 L396,683.3569 A2.5,2.5 0 0 1 398.5,680.8569" fill="#F5F5F5" style="stroke:#1565C0;stroke-width:1.5;"/><line style="stroke:#1565C0;stroke-width:1.5;" x1="396" x2="473.1621" y1="703.1538" y2="703.1538"/><text fill="#000000" font-family="sans-serif" font-size="14" font-weight="700" lengthAdjust="spacing" textLength="64.1621" x="400" y="695.852">Scanner</text></g><!--cluster risk_pkg--><g class="cluster" data-qualified-name="risk_pkg" data-source-line="47" id="ent0028"><path d="M15.5,633.4769 L123.8105,633.4769 A3.75,3.75 0 0 1 126.3105,635.9769 L133.3105,655.7738 L369.5,655.7738 A2.5,2.5 0 0 1 372,658.2738 L372,813.0369 A2.5,2.5 0 0 1 369.5,815.5369 L15.5,815.5369 A2.5,2.5 0 0 1 13,813.0369 L13,635.9769 A2.5,2.5 0 0 1 15.5,633.4769" fill="#F5F5F5" style="stroke:#1565C0;stroke-width:1.5;"/><line style="stroke:#1565C0;stroke-width:1.5;" x1="13" x2="133.3105" y1="655.7738" y2="655.7738"/><text fill="#000000" font-family="sans-serif" font-size="14" font-weight="700" lengthAdjust="spacing" textLength="107.3105" x="17" y="648.472">Risk Manager</text></g><!--cluster exchange_pkg--><g class="cluster" data-qualified-name="exchange_pkg" data-source-line="52" id="ent0033"><path d="M1014.5,879.5369 L1140.0576,879.5369 A3.75,3.75 0 0 1 1142.5576,882.0369 L1149.5576,901.8338 L1209.5,901.8338 A2.5,2.5 0 0 1 1212,904.3338 L1212,1232.5269 A2.5,2.5 0 0 1 1209.5,1235.0269 L1014.5,1235.0269 A2.5,2.5 0 0 1 1012,1232.5269 L1012,882.0369 A2.5,2.5 0 0 1 1014.5,879.5369" fill="#F5F5F5" style="stroke:#1565C0;stroke-width:1.5;"/><line style="stroke:#1565C0;stroke-width:1.5;" x1="1012" x2="1149.5576" y1="901.8338" y2="901.8338"/><text fill="#000000" font-family="sans-serif" font-size="14" font-weight="700" lengthAdjust="spacing" textLength="124.5576" x="1016" y="894.532">Exchange Layer</text></g><!--cluster kalshi_pkg--><g class="cluster" data-qualified-name="kalshi_pkg" data-source-line="60" id="ent0039"><path d="M909.5,1284.0269 L1009.5938,1284.0269 A3.75,3.75 0 0 1 1012.0938,1286.5269 L1019.0938,1306.3238 L1300.5,1306.3238 A2.5,2.5 0 0 1 1303,1308.8238 L1303,1417.7169 A2.5,2.5 0 0 1 1300.5,1420.2169 L909.5,1420.2169 A2.5,2.5 0 0 1 907,1417.7169 L907,1286.5269 A2.5,2.5 0 0 1 909.5,1284.0269" fill="#F5F5F5" style="stroke:#1565C0;stroke-width:1.5;"/><line style="stroke:#1565C0;stroke-width:1.5;" x1="907" x2="1019.0938" y1="1306.3238" y2="1306.3238"/><text fill="#000000" font-family="sans-serif" font-size="14" font-weight="700" lengthAdjust="spacing" textLength="99.0938" x="911" y="1299.022">Kalshi Client</text></g><!--cluster data_pkg--><g class="cluster" data-qualified-name="data_pkg" data-source-line="65" id="ent0042"><path d="M201.5,1032.1369 L300.7803,1032.1369 A3.75,3.75 0 0 1 303.2803,1034.6369 L310.2803,1054.4338 L350.5,1054.4338 A2.5,2.5 0 0 1 353,1056.9338 L353,1133.2269 A2.5,2.5 0 0 1 350.5,1135.7269 L201.5,1135.7269 A2.5,2.5 0 0 1 199,1133.2269 L199,1034.6369 A2.5,2.5 0 0 1 201.5,1032.1369" fill="#F5F5F5" style="stroke:#1565C0;stroke-width:1.5;"/><line style="stroke:#1565C0;stroke-width:1.5;" x1="199" x2="310.2803" y1="1054.4338" y2="1054.4338"/><text fill="#000000" font-family="sans-serif" font-size="14" font-weight="700" lengthAdjust="spacing" textLength="98.2803" x="203" y="1047.132">Data Models</text></g><!--entity trade--><g class="entity" data-qualified-name="cli.trade" data-source-line="18" id="ent0003"><rect fill="#E3F2FD" height="52.5938" rx="2.5" ry="2.5" style="stroke:#1565C0;stroke-width:0.5;" width="96.8701" x="408.56" y="78.2969"/><text fill="#000000" font-family="sans-serif" font-size="14" lengthAdjust="spacing" textLength="58.9463" x="418.56" y="101.292">trade.py</text><text fill="#000000" font-family="sans-serif" font-size="14" lengthAdjust="spacing" textLength="76.8701" x="418.56" y="117.5889">CLI Runner</text></g><g class="entity" data-qualified-name="cli.GMN4" data-source-line="19" id="ent0005"><path d="M540.88,84.4669 L540.88,100.5969 L505.93,104.5969 L540.88,108.5969 L540.88,124.7325 A0,0 0 0 0 540.88,124.7325 L673.1227,124.7325 A0,0 0 0 0 673.1227,124.7325 L673.1227,94.4669 L663.1227,84.4669 L540.88,84.4669 A0,0 0 0 0 540.88,84.4669" fill="#FFF8E1" style="stroke:#F57F17;stroke-width:0.5;"/><path d="M663.1227,84.4669 L663.1227,94.4669 L673.1227,94.4669 L663.1227,84.4669" fill="#FFF8E1" style="stroke:#F57F17;stroke-width:0.5;"/><text fill="#333333" font-family="sans-serif" font-size="13" lengthAdjust="spacing" text-decoration="line-through" textLength="23.0483" x="546.88" y="101.5338">sim</text><text fill="#333333" font-family="sans-serif" font-size="13" lengthAdjust="spacing" textLength="31.3384" x="574.0607" y="101.5338">once</text><text fill="#333333" font-family="sans-serif" font-size="13" lengthAdjust="spacing" text-decoration="line-through" textLength="67.1646" x="546.88" y="116.6666">strategy-b</text><text fill="#333333" font-family="sans-serif" font-size="13" lengthAdjust="spacing" textLength="39.9458" x="618.1769" y="116.6666">status</text></g><!--entity scheduler--><g class="entity" data-qualified-name="sched.scheduler" data-source-line="23" id="ent0008"><rect fill="#E3F2FD" height="52.5938" rx="2.5" ry="2.5" style="stroke:#1565C0;stroke-width:0.5;" width="134.3105" x="250.84" y="230.8969"/><text fill="#000000" font-family="sans-serif" font-size="14" lengthAdjust="spacing" textLength="114.3105" x="260.84" y="253.892">scheduler_v2.py</text><text fill="#000000" font-family="sans-serif" font-size="14" lengthAdjust="spacing" textLength="88.1084" x="260.84" y="270.1889">APScheduler</text></g><!--entity job_b--><g class="entity" data-qualified-name="sched.job_b" data-source-line="24" id="ent0009"><rect fill="#E3F2FD" height="52.5938" rx="2.5" ry="2.5" style="stroke:#1565C0;stroke-width:0.5;" width="120.0713" x="180.96" y="360.4869"/><text fill="#000000" font-family="sans-serif" font-size="14" lengthAdjust="spacing" textLength="100.0713" x="190.96" y="383.482">Strategy B Job</text><text fill="#000000" font-family="sans-serif" font-size="14" lengthAdjust="spacing" textLength="98.1846" x="190.96" y="399.7789">2-min interval</text></g><!--entity job_full--><g class="entity" data-qualified-name="sched.job_full" data-source-line="25" id="ent0010"><rect fill="#E3F2FD" height="52.5938" rx="2.5" ry="2.5" style="stroke:#1565C0;stroke-width:0.5;" width="118.1846" x="335.91" y="360.4869"/><text fill="#000000" font-family="sans-serif" font-size="14" lengthAdjust="spacing" textLength="89.2227" x="345.91" y="383.482">Full Scan Job</text><text fill="#000000" font-family="sans-serif" font-size="14" lengthAdjust="spacing" textLength="98.1846" x="345.91" y="399.7789">5-min interval</text></g><!--entity job_hb--><g class="entity" data-qualified-name="sched.job_hb" data-source-line="26" id="ent0011"><rect fill="#E3F2FD" height="52.5938" rx="2.5" ry="2.5" style="stroke:#1565C0;stroke-width:0.5;" width="124.2959" x="21.85" y="360.4869"/><text fill="#000000" font-family="sans-serif" font-size="14" lengthAdjust="spacing" textLength="96.5645" x="31.85" y="383.482">Heartbeat Job</text><text fill="#000000" font-family="sans-serif" font-size="14" lengthAdjust="spacing" textLength="104.2959" x="31.85" y="399.7789">60-sec interval</text></g><!--entity engine--><g class="entity" data-qualified-name="engine_pkg.engine" data-source-line="33" id="ent0016"><rect fill="#E3F2FD" height="52.5938" rx="2.5" ry="2.5" style="stroke:#1565C0;stroke-width:0.5;" width="121.4043" x="334.3" y="514.4869"/><text fill="#000000" font-family="sans-serif" font-size="14" lengthAdjust="spacing" textLength="101.4043" x="344.3" y="537.482">TradingEngine</text><text fill="#000000" font-family="sans-serif" font-size="14" lengthAdjust="spacing" textLength="88.8877" x="344.3" y="553.7789">Orchestrator</text></g><g class="entity" data-qualified-name="engine_pkg.GMN17" data-source-line="34" id="ent0018"><path d="M490.46,513.0769 L490.46,536.7769 L456.07,540.7769 L490.46,544.7769 L490.46,568.4753 A0,0 0 0 0 490.46,568.4753 L685.5318,568.4753 A0,0 0 0 0 685.5318,568.4753 L685.5318,523.0769 L675.5318,513.0769 L490.46,513.0769 A0,0 0 0 0 490.46,513.0769" fill="#FFF8E1" style="stroke:#F57F17;stroke-width:0.5;"/><path d="M675.5318,513.0769 L675.5318,523.0769 L685.5318,523.0769 L675.5318,513.0769" fill="#FFF8E1" style="stroke:#F57F17;stroke-width:0.5;"/><text fill="#333333" font-family="sans-serif" font-size="13" lengthAdjust="spacing" textLength="72.0649" x="496.46" y="530.1438">run_cycle()</text><text fill="#333333" font-family="sans-serif" font-size="13" lengthAdjust="spacing" textLength="174.0718" x="496.46" y="545.2766">scan &#8594; approve &#8594; execute</text><text fill="#333333" font-family="sans-serif" font-size="13" lengthAdjust="spacing" textLength="125.4297" x="496.46" y="560.4094">auto-cancel on halt</text></g><!--entity opp_scanner--><g class="entity" data-qualified-name="scanner_pkg.opp_scanner" data-source-line="38" id="ent0021"><rect fill="#E3F2FD" height="36.2969" rx="2.5" ry="2.5" style="stroke:#1565C0;stroke-width:0.5;" width="161.292" x="461.35" y="715.8569"/><text fill="#000000" font-family="sans-serif" font-size="14" lengthAdjust="spacing" textLength="141.292" x="471.35" y="738.852">OpportunityScanner</text></g><!--entity strat_b--><g class="entity" data-qualified-name="scanner_pkg.strat_b" data-source-line="39" id="ent0022"><rect fill="#E3F2FD" height="52.5938" rx="2.5" ry="2.5" style="stroke:#1565C0;stroke-width:0.5;" width="178.792" x="411.6" y="914.5369"/><text fill="#000000" font-family="sans-serif" font-size="14" lengthAdjust="spacing" textLength="126.8682" x="421.6" y="937.532">StrategyBScanner</text><text fill="#000000" font-family="sans-serif" font-size="14" lengthAdjust="spacing" textLength="158.792" x="421.6" y="953.8289">Cross-bracket sum arb</text></g><!--entity strat_a--><g class="entity" data-qualified-name="scanner_pkg.strat_a" data-source-line="40" id="ent0023"><rect fill="#E3F2FD" height="52.5938" rx="2.5" ry="2.5" style="stroke:#1565C0;stroke-width:0.5;" width="155.7412" x="625.13" y="914.5369"/><text fill="#000000" font-family="sans-serif" font-size="14" lengthAdjust="spacing" textLength="135.7412" x="635.13" y="937.532">Strategy A Scanner</text><text fill="#000000" font-family="sans-serif" font-size="14" lengthAdjust="spacing" textLength="66.083" x="635.13" y="953.8289">(Phase 2)</text></g><!--entity strat_c--><g class="entity" data-qualified-name="scanner_pkg.strat_c" data-source-line="41" id="ent0024"><rect fill="#E3F2FD" height="52.5938" rx="2.5" ry="2.5" style="stroke:#1565C0;stroke-width:0.5;" width="155.9395" x="816.03" y="914.5369"/><text fill="#000000" font-family="sans-serif" font-size="14" lengthAdjust="spacing" textLength="135.9395" x="826.03" y="937.532">Strategy C Scanner</text><text fill="#000000" font-family="sans-serif" font-size="14" lengthAdjust="spacing" textLength="66.083" x="826.03" y="953.8289">(Phase 2)</text></g><!--entity risk--><g class="entity" data-qualified-name="risk_pkg.risk" data-source-line="48" id="ent0029"><rect fill="#E3F2FD" height="36.2969" rx="2.5" ry="2.5" style="stroke:#1565C0;stroke-width:0.5;" width="110.3848" x="28.81" y="715.8569"/><text fill="#000000" font-family="sans-serif" font-size="14" lengthAdjust="spacing" textLength="90.3848" x="38.81" y="738.852">RiskManager</text></g><g class="entity" data-qualified-name="risk_pkg.GMN30" data-source-line="49" id="ent0031"><path d="M174.4,668.4769 L174.4,730.0069 L139.5,734.0069 L174.4,738.0069 L174.4,799.5394 A0,0 0 0 0 174.4,799.5394 L355.6085,799.5394 A0,0 0 0 0 355.6085,799.5394 L355.6085,678.4769 L345.6085,668.4769 L174.4,668.4769 A0,0 0 0 0 174.4,668.4769" fill="#FFF8E1" style="stroke:#F57F17;stroke-width:0.5;"/><path d="M345.6085,668.4769 L345.6085,678.4769 L355.6085,678.4769 L345.6085,668.4769" fill="#FFF8E1" style="stroke:#F57F17;stroke-width:0.5;"/><text fill="#333333" font-family="sans-serif" font-size="13" lengthAdjust="spacing" textLength="94.8657" x="180.4" y="685.5438">Daily loss limit</text><text fill="#333333" font-family="sans-serif" font-size="13" lengthAdjust="spacing" textLength="139.5786" x="180.4" y="700.6766">Drawdown from peak</text><text fill="#333333" font-family="sans-serif" font-size="13" lengthAdjust="spacing" textLength="123.8428" x="180.4" y="715.8094">Consecutive losses</text><text fill="#333333" font-family="sans-serif" font-size="13" lengthAdjust="spacing" textLength="127.0103" x="180.4" y="730.9422">Rolling window loss</text><text fill="#333333" font-family="sans-serif" font-size="13" lengthAdjust="spacing" textLength="120.9863" x="180.4" y="746.075">Fee-adjusted edge</text><text fill="#333333" font-family="sans-serif" font-size="13" lengthAdjust="spacing" textLength="89.9844" x="180.4" y="761.2078">Liquidity filter</text><text fill="#333333" font-family="sans-serif" font-size="13" lengthAdjust="spacing" textLength="160.2085" x="180.4" y="776.3406">Kill switch + auto-cancel</text><text fill="#333333" font-family="sans-serif" font-size="13" lengthAdjust="spacing" textLength="145.8247" x="180.4" y="791.4735">Portfolio exposure cap</text></g><!--entity api--><g class="entity" data-qualified-name="exchange_pkg.api" data-source-line="53" id="ent0034"><ellipse cx="1112" cy="1093.4269" fill="#F1F1F1" rx="8" ry="8" style="stroke:#181818;stroke-width:0.5;"/><text fill="#000000" font-family="sans-serif" font-size="14" lengthAdjust="spacing" textLength="109.1836" x="1057.4082" y="1123.422">ExchangeClient</text></g><!--entity kalshi--><g class="entity" data-qualified-name="exchange_pkg.kalshi" data-source-line="54" id="ent0035"><rect fill="#E3F2FD" height="36.2969" rx="2.5" ry="2.5" style="stroke:#1565C0;stroke-width:0.5;" width="130.3594" x="1046.82" y="1182.7269"/><text fill="#000000" font-family="sans-serif" font-size="14" lengthAdjust="spacing" textLength="110.3594" x="1056.82" y="1205.722">KalshiExchange</text></g><!--entity polymarket--><g class="entity" data-qualified-name="exchange_pkg.polymarket" data-source-line="55" id="ent0036"><rect fill="#E3F2FD" height="52.5938" rx="2.5" ry="2.5" style="stroke:#1565C0;stroke-width:0.5;" width="168.0186" x="1027.99" y="914.5369"/><text fill="#000000" font-family="sans-serif" font-size="14" lengthAdjust="spacing" textLength="148.0186" x="1037.99" y="937.532">PolymarketExchange</text><text fill="#000000" font-family="sans-serif" font-size="14" lengthAdjust="spacing" textLength="101.0762" x="1037.99" y="953.8289">(Phase 2 stub)</text></g><!--entity client--><g class="entity" data-qualified-name="kalshi_pkg.client" data-source-line="61" id="ent0040"><rect fill="#E3F2FD" height="85.1875" rx="2.5" ry="2.5" style="stroke:#1565C0;stroke-width:0.5;" width="167.3418" x="923.33" y="1319.0269"/><text fill="#000000" font-family="sans-serif" font-size="14" lengthAdjust="spacing" textLength="82.2363" x="933.33" y="1342.022">KalshiClient</text><text fill="#000000" font-family="sans-serif" font-size="14" lengthAdjust="spacing" textLength="96.7217" x="933.33" y="1358.3189">RSA-PSS Auth</text><text fill="#000000" font-family="sans-serif" font-size="14" lengthAdjust="spacing" textLength="147.3418" x="933.33" y="1374.6157">Shared httpx session</text><text fill="#000000" font-family="sans-serif" font-size="14" lengthAdjust="spacing" textLength="138.9336" x="933.33" y="1390.9126">Exponential backoff</text></g><!--entity markets--><g class="entity" data-qualified-name="kalshi_pkg.markets" data-source-line="62" id="ent0041"><rect fill="#E3F2FD" height="52.5938" rx="2.5" ry="2.5" style="stroke:#1565C0;stroke-width:0.5;" width="161.2236" x="1125.39" y="1335.3269"/><text fill="#000000" font-family="sans-serif" font-size="14" lengthAdjust="spacing" textLength="126.7314" x="1135.39" y="1358.322">kalshi_markets.py</text><text fill="#000000" font-family="sans-serif" font-size="14" lengthAdjust="spacing" textLength="141.2236" x="1135.39" y="1374.6189">Market data parsing</text></g><!--entity models--><g class="entity" data-qualified-name="data_pkg.models" data-source-line="66" id="ent0043"><rect fill="#E3F2FD" height="52.5938" rx="2.5" ry="2.5" style="stroke:#1565C0;stroke-width:0.5;" width="122.4707" x="214.76" y="1067.1369"/><text fill="#000000" font-family="sans-serif" font-size="14" lengthAdjust="spacing" textLength="84.0137" x="224.76" y="1090.132">Opportunity</text><text fill="#000000" font-family="sans-serif" font-size="14" lengthAdjust="spacing" textLength="102.4707" x="224.76" y="1106.4289">BracketMarket</text></g><!--entity kalshi_api--><g class="entity" data-qualified-name="kalshi_api" data-source-line="69" id="ent0044"><path d="M954.18,1493.2169 C954.18,1483.2169 1007.0003,1483.2169 1007.0003,1483.2169 C1007.0003,1483.2169 1059.8206,1483.2169 1059.8206,1493.2169 L1059.8206,1534.8106 C1059.8206,1544.8106 1007.0003,1544.8106 1007.0003,1544.8106 C1007.0003,1544.8106 954.18,1544.8106 954.18,1534.8106 L954.18,1493.2169" fill="#F1F1F1" style="stroke:#181818;stroke-width:0.5;"/><path d="M954.18,1493.2169 C954.18,1503.2169 1007.0003,1503.2169 1007.0003,1503.2169 C1007.0003,1503.2169 1059.8206,1503.2169 1059.8206,1493.2169" fill="none" style="stroke:#181818;stroke-width:0.5;"/><text fill="#000000" font-family="sans-serif" font-size="14" lengthAdjust="spacing" textLength="68.3047" x="964.18" y="1520.212">Kalshi API</text><text fill="#000000" font-family="sans-serif" font-size="14" lengthAdjust="spacing" textLength="85.6406" x="964.18" y="1536.5089">trade-api/v2</text></g><!--reverse link scheduler to job_b--><g class="link" data-entity-1="ent0008" data-entity-2="ent0009" data-link-type="dependency" data-source-line="27" id="lnk12"><path d="M299.4995,288.8437 C286.0695,311.0937 269.79,338.0769 256.37,360.3169" fill="none" id="scheduler-backto-job_b" style="stroke:#1565C0;stroke-width:1;"/><polygon fill="#1565C0" points="302.6,283.7069,294.5247,289.345,300.0162,287.9875,301.3737,293.4791,302.6,283.7069" style="stroke:#1565C0;stroke-width:1;"/></g><!--reverse link scheduler to job_full--><g class="link" data-entity-1="ent0008" data-entity-2="ent0010" data-link-type="dependency" data-source-line="28" id="lnk13"><path d="M336.5005,288.8437 C349.9305,311.0937 366.21,338.0769 379.63,360.3169" fill="none" id="scheduler-backto-job_full" style="stroke:#1565C0;stroke-width:1;"/><polygon fill="#1565C0" points="333.4,283.7069,334.6263,293.4791,335.9838,287.9875,341.4753,289.345,333.4,283.7069" style="stroke:#1565C0;stroke-width:1;"/></g><!--reverse link scheduler to job_hb--><g class="link" data-entity-1="ent0008" data-entity-2="ent0011" data-link-type="dependency" data-source-line="29" id="lnk14"><path d="M265.6623,286.7294 C224.9523,308.9294 171.68,337.9769 131,360.1569" fill="none" id="scheduler-backto-job_hb" style="stroke:#1565C0;stroke-width:1;"/><polygon fill="#1565C0" points="270.93,283.8569,261.1134,284.6539,266.5403,286.2507,264.9435,291.6775,270.93,283.8569" style="stroke:#1565C0;stroke-width:1;"/></g><!--reverse link opp_scanner to strat_b--><g class="link" data-entity-1="ent0021" data-entity-2="ent0022" data-link-type="dependency" data-source-line="42" id="lnk25"><path d="M531.1737,757.7729 C522.5037,776.7229 511.87,802.7969 506,831.5369 C500.31,859.3869 499.59,892.0569 499.96,914.1769" fill="none" id="opp_scanner-backto-strat_b" style="stroke:#1565C0;stroke-width:1;"/><polygon fill="#1565C0" points="533.67,752.3169,526.2882,758.8368,531.5898,756.8636,533.563,762.1652,533.67,752.3169" style="stroke:#1565C0;stroke-width:1;"/></g><!--link opp_scanner to strat_b--><g class="link" data-entity-1="ent0021" data-entity-2="ent0022" data-link-type="dependency" data-source-line="81" id="lnk53"><path d="M538.5,752.4769 C531.26,788.6569 515.7675,866.0736 507.3075,908.3436" fill="none" id="opp_scanner-to-strat_b" style="stroke:#1565C0;stroke-width:1;"/><polygon fill="#1565C0" points="506.13,914.2269,511.8185,906.1869,507.1112,909.3241,503.974,904.6169,506.13,914.2269" style="stroke:#1565C0;stroke-width:1;"/><text fill="#000000" font-family="sans-serif" font-size="13" lengthAdjust="spacing" textLength="115.7432" x="522" y="852.1038">scan_strategy_b()</text></g><!--reverse link opp_scanner to strat_a--><g class="link" data-entity-1="ent0021" data-entity-2="ent0023" data-link-type="dependency" data-source-line="43" id="lnk26"><path d="M569.4913,756.0874 C592.0913,774.1074 622.03,800.2469 646,831.5369 C665.89,857.5169 682.48,891.4369 692.54,914.3369" fill="none" id="opp_scanner-backto-strat_a" style="stroke:#1565C0;stroke-width:1;"/><polygon fill="#1565C0" points="564.8,752.3469,569.3432,761.0853,568.7094,755.464,574.3306,754.8302,564.8,752.3469" style="stroke:#1565C0;stroke-width:1;"/></g><!--reverse link opp_scanner to strat_c--><g class="link" data-entity-1="ent0021" data-entity-2="ent0024" data-link-type="dependency" data-source-line="44" id="lnk27"><path d="M583.8165,755.2299 C634.2165,779.9599 722.19,824.6269 798,871.5369 C819.22,884.6769 842.02,900.7969 860.07,914.0869" fill="none" id="opp_scanner-backto-strat_c" style="stroke:#1565C0;stroke-width:1;"/><polygon fill="#1565C0" points="578.43,752.5869,584.7477,760.1424,582.9188,754.7894,588.2718,752.9604,578.43,752.5869" style="stroke:#1565C0;stroke-width:1;"/></g><!--link kalshi to api--><g class="link" data-entity-1="ent0035" data-entity-2="ent0034" data-link-type="extension" data-source-line="56" id="lnk37"><path d="M1122.36,1182.3469 C1127.3,1159.3169 1132.9969,1136.5484 1126.2769,1119.4584" fill="none" id="kalshi-to-api" style="stroke:#1565C0;stroke-width:1;stroke-dasharray:7,7;"/><polygon fill="none" points="1119.69,1102.7069,1120.6931,1121.654,1131.8607,1117.2627,1119.69,1102.7069" style="stroke:#1565C0;stroke-width:1;"/></g><!--reverse link api to kalshi--><g class="link" data-entity-1="ent0034" data-entity-2="ent0035" data-link-type="dependency" data-source-line="92" id="lnk61"><path d="M1102.6502,1108.3312 C1096.3002,1125.4212 1097.55,1159.3169 1102.22,1182.3469" fill="none" id="api-backto-kalshi" style="stroke:#1565C0;stroke-width:1;"/><polygon fill="#1565C0" points="1104.74,1102.7069,1097.8558,1109.7501,1102.9985,1107.3938,1105.3549,1112.5365,1104.74,1102.7069" style="stroke:#1565C0;stroke-width:1;"/></g><!--link polymarket to api--><g class="link" data-entity-1="ent0036" data-entity-2="ent0034" data-link-type="extension" data-source-line="57" id="lnk38"><path d="M1112,967.3869 C1112,1001.9569 1112,1043.8569 1112,1065.9369" fill="none" id="polymarket-to-api" style="stroke:#1565C0;stroke-width:1;stroke-dasharray:7,7;"/><polygon fill="none" points="1112,1083.9369,1118,1065.9369,1106,1065.9369,1112,1083.9369" style="stroke:#1565C0;stroke-width:1;"/></g><!--link trade to scheduler--><g class="link" data-entity-1="ent0003" data-entity-2="ent0008" data-link-type="dependency" data-source-line="71" id="lnk45"><path d="M433.42,131.1469 C407.86,158.8369 371.3692,198.3676 345.7692,226.1076" fill="none" id="trade-to-scheduler" style="stroke:#1565C0;stroke-width:1;"/><polygon fill="#1565C0" points="341.7,230.5169,350.7433,226.6157,345.091,226.8425,344.8642,221.1901,341.7,230.5169" style="stroke:#1565C0;stroke-width:1;"/><text fill="#000000" font-family="sans-serif" font-size="13" lengthAdjust="spacing" textLength="30.2783" x="405" y="175.9638">start</text></g><!--link trade to engine--><g class="link" data-entity-1="ent0003" data-entity-2="ent0016" data-link-type="dependency" data-source-line="72" id="lnk46"><path d="M465.9,131.1369 C485.42,191.5969 526.47,347.0569 477,462.0769 C471.58,474.6869 452.1483,492.8807 431.4983,510.2807" fill="none" id="trade-to-engine" style="stroke:#1565C0;stroke-width:1;"/><polygon fill="#1565C0" points="426.91,514.1469,436.3699,511.4065,430.7336,510.9251,431.215,505.2887,426.91,514.1469" style="stroke:#1565C0;stroke-width:1;"/><text fill="#000000" font-family="sans-serif" font-size="13" lengthAdjust="spacing" textLength="40.7202" x="501" y="326.5538">--once</text></g><!--link job_b to engine--><g class="link" data-entity-1="ent0009" data-entity-2="ent0016" data-link-type="dependency" data-source-line="73" id="lnk47"><path d="M265.39,413.4869 C279.21,427.9169 296.91,446.1669 313,462.0769 C330.85,479.7269 346.969,495.0572 363.009,510.0672" fill="none" id="job_b-to-engine" style="stroke:#1565C0;stroke-width:1;"/><polygon fill="#1565C0" points="367.39,514.1669,363.5516,505.0968,363.7392,510.7505,358.0854,510.938,367.39,514.1669" style="stroke:#1565C0;stroke-width:1;"/><text fill="#000000" font-family="sans-serif" font-size="13" lengthAdjust="spacing" textLength="72.0649" x="314" y="458.1438">run_cycle()</text></g><!--link job_full to engine--><g class="link" data-entity-1="ent0010" data-entity-2="ent0016" data-link-type="dependency" data-source-line="74" id="lnk48"><path d="M395,413.5669 C395,441.6069 395,480.1369 395,508.1269" fill="none" id="job_full-to-engine" style="stroke:#1565C0;stroke-width:1;"/><polygon fill="#1565C0" points="395,514.1269,399,505.1269,395,509.1269,391,505.1269,395,514.1269" style="stroke:#1565C0;stroke-width:1;"/><text fill="#000000" font-family="sans-serif" font-size="13" lengthAdjust="spacing" textLength="72.0649" x="396" y="458.1438">run_cycle()</text></g><!--link job_hb to risk--><g class="link" data-entity-1="ent0011" data-entity-2="ent0029" data-link-type="dependency" data-source-line="75" id="lnk49"><path d="M84,413.4469 C84,480.3269 84,652.6969 84,709.4269" fill="none" id="job_hb-to-risk" style="stroke:#1565C0;stroke-width:1;"/><polygon fill="#1565C0" points="84,715.4269,88,706.4269,84,710.4269,80,706.4269,84,715.4269" style="stroke:#1565C0;stroke-width:1;"/><text fill="#000000" font-family="sans-serif" font-size="13" lengthAdjust="spacing" textLength="130.3174" x="85" y="545.3438">is_trading_allowed()</text></g><!--link engine to opp_scanner--><g class="link" data-entity-1="ent0016" data-entity-2="ent0021" data-link-type="dependency" data-source-line="77" id="lnk50"><path d="M439.17,567.4569 C452.48,576.6669 466.36,587.9169 477,600.4769 C507.31,636.2669 525.59,682.919 534.64,709.869" fill="none" id="engine-to-opp_scanner" style="stroke:#1565C0;stroke-width:1;"/><polygon fill="#1565C0" points="536.55,715.5569,537.4769,705.7517,534.9583,710.817,529.8931,708.2984,536.55,715.5569" style="stroke:#1565C0;stroke-width:1;"/><text fill="#000000" font-family="sans-serif" font-size="13" lengthAdjust="spacing" textLength="61.9595" x="490" y="613.5438">scan_all()</text></g><!--link engine to risk--><g class="link" data-entity-1="ent0016" data-entity-2="ent0029" data-link-type="dependency" data-source-line="78" id="lnk51"><path d="M364.98,567.3869 C342.58,584.8669 310.38,606.7469 278,617.4769 C252.42,625.9569 180.38,612.0869 157,625.4769 C121.76,645.6669 102.1797,685.0447 92.3597,709.9647" fill="none" id="engine-to-risk" style="stroke:#1565C0;stroke-width:1;"/><polygon fill="#1565C0" points="90.16,715.5469,97.1811,708.64,91.9931,710.895,89.7381,705.7071,90.16,715.5469" style="stroke:#1565C0;stroke-width:1;"/><text fill="#000000" font-family="sans-serif" font-size="13" lengthAdjust="spacing" textLength="145.8374" x="313" y="613.5438">approve_opportunity()</text></g><!--link risk to engine--><g class="link" data-entity-1="ent0029" data-entity-2="ent0016" data-link-type="dependency" data-source-line="86" id="lnk57"><path d="M86.97,715.7669 C92.97,686.6269 109.52,628.0969 149,600.4769 C162.73,590.8669 207.56,595.7669 224,592.4769 C261.04,585.0769 295.9079,575.0532 328.2279,564.6632" fill="none" id="risk-to-engine" style="stroke:#1565C0;stroke-width:1;"/><polygon fill="#1565C0" points="333.94,562.8269,324.1477,561.7732,329.1799,564.3571,326.596,569.3894,333.94,562.8269" style="stroke:#1565C0;stroke-width:1;"/><text fill="#000000" font-family="sans-serif" font-size="13" lengthAdjust="spacing" textLength="119.5391" x="150" y="613.5438">approved/rejected</text></g><!--link engine to api--><g class="link" data-entity-1="ent0016" data-entity-2="ent0034" data-link-type="dependency" data-source-line="79" id="lnk52"><path d="M426.47,567.5169 C439.97,577.1069 456.44,586.9869 473,592.4769 C500.21,601.5069 962.13,613.1169 988,625.4769 C1121.97,689.5169 1160.1,733.1769 1214,871.5369 C1233.29,921.0669 1234.43,942.0669 1214,991.1369 C1194.72,1037.4469 1147.9313,1070.3022 1126.5213,1083.6522" fill="none" id="engine-to-api" style="stroke:#1565C0;stroke-width:1;"/><polygon fill="#1565C0" points="1121.43,1086.8269,1131.1834,1085.4591,1125.6728,1084.1813,1126.9506,1078.6707,1121.43,1086.8269" style="stroke:#1565C0;stroke-width:1;"/><text fill="#000000" font-family="sans-serif" font-size="13" lengthAdjust="spacing" textLength="86.5122" x="1214.5674" y="844.6038">place_order()</text><text fill="#000000" font-family="sans-serif" font-size="13" lengthAdjust="spacing" textLength="93.647" x="1211" y="859.7366">cancel_order()</text></g><!--link strat_b to api--><g class="link" data-entity-1="ent0022" data-entity-2="ent0034" data-link-type="dependency" data-source-line="82" id="lnk54"><path d="M550.38,967.5169 C568.18,975.9769 588.65,984.8269 608,991.1369 C801.9,1054.3269 1045.2299,1084.7259 1096.5499,1090.6759" fill="none" id="strat_b-to-api" style="stroke:#1565C0;stroke-width:1;"/><polygon fill="#1565C0" points="1102.51,1091.3669,1094.0306,1086.357,1097.5433,1090.791,1093.1092,1094.3037,1102.51,1091.3669" style="stroke:#1565C0;stroke-width:1;"/><text fill="#000000" font-family="sans-serif" font-size="13" lengthAdjust="spacing" textLength="134.8877" x="689" y="1012.2038">get_event_markets()</text></g><!--link strat_b to models--><g class="link" data-entity-1="ent0022" data-entity-2="ent0043" data-link-type="dependency" data-source-line="83" id="lnk55"><path d="M462.58,967.5569 C421.16,995.2769 360.6064,1035.7998 319.2464,1063.4798" fill="none" id="strat_b-to-models" style="stroke:#1565C0;stroke-width:1;"/><polygon fill="#1565C0" points="314.26,1066.8169,323.9643,1065.1355,318.4153,1064.036,319.5148,1058.487,314.26,1066.8169" style="stroke:#1565C0;stroke-width:1;"/><text fill="#000000" font-family="sans-serif" font-size="13" lengthAdjust="spacing" textLength="78.0127" x="416" y="1012.2038">Opportunity</text></g><!--reverse link risk to models--><g class="link" data-entity-1="ent0029" data-entity-2="ent0043" data-link-type="dependency" data-source-line="85" id="lnk56"><path d="M96.0996,757.5324 C127.1896,815.4024 225.1,997.6669 262.16,1066.6569" fill="none" id="risk-backto-models" style="stroke:#1565C0;stroke-width:1;"/><polygon fill="#1565C0" points="93.26,752.2469,93.9957,762.0682,95.6263,756.6515,101.0431,758.2821,93.26,752.2469" style="stroke:#1565C0;stroke-width:1;"/><text fill="#000000" font-family="sans-serif" font-size="13" lengthAdjust="spacing" textLength="153.2959" x="221" y="945.4038">edge, brackets, volume</text></g><!--link kalshi to client--><g class="link" data-entity-1="ent0035" data-entity-2="ent0040" data-link-type="dependency" data-source-line="88" id="lnk58"><path d="M1071.65,1219.4669 C1057.88,1227.2969 1043.55,1237.7869 1034,1251.0269 C1019.84,1270.6469 1013.937,1290.9113 1010.707,1312.7713" fill="none" id="kalshi-to-client" style="stroke:#1565C0;stroke-width:1;"/><polygon fill="#1565C0" points="1009.83,1318.7069,1015.1026,1310.3882,1010.5609,1313.7606,1007.1885,1309.2189,1009.83,1318.7069" style="stroke:#1565C0;stroke-width:1;"/><text fill="#000000" font-family="sans-serif" font-size="13" lengthAdjust="spacing" textLength="99.1377" x="1035" y="1264.0938">post/get/delete</text></g><!--link kalshi to markets--><g class="link" data-entity-1="ent0035" data-entity-2="ent0041" data-link-type="dependency" data-source-line="89" id="lnk59"><path d="M1123.37,1219.5169 C1129.31,1228.8269 1136.65,1240.4869 1143,1251.0269 C1160.21,1279.5969 1176.254,1307.6499 1188.834,1329.9699" fill="none" id="kalshi-to-markets" style="stroke:#1565C0;stroke-width:1;"/><polygon fill="#1565C0" points="1191.78,1335.1969,1190.8456,1325.3924,1189.325,1330.8411,1183.8763,1329.3205,1191.78,1335.1969" style="stroke:#1565C0;stroke-width:1;"/><text fill="#000000" font-family="sans-serif" font-size="13" lengthAdjust="spacing" textLength="80.0122" x="1152" y="1264.0938">market data</text></g><!--link client to kalshi_api--><g class="link" data-entity-1="ent0040" data-entity-2="ent0044" data-link-type="dependency" data-source-line="90" id="lnk60"><path d="M1007,1404.5069 C1007,1429.3669 1007,1454.3069 1007,1476.7869" fill="none" id="client-to-kalshi_api" style="stroke:#1565C0;stroke-width:1;"/><polygon fill="#1565C0" points="1007,1482.7869,1011,1473.7869,1007,1477.7869,1003,1473.7869,1007,1482.7869" style="stroke:#1565C0;stroke-width:1;"/><text fill="#000000" font-family="sans-serif" font-size="13" lengthAdjust="spacing" textLength="116.1177" x="1008" y="1449.2838">HTTPS + RSA-PSS</text></g><?plantuml-src XLRRRjms47tNLmpYbmIDxDY1ay8e0lYAfB7XXTT07ofZGKcZ5MqkgPBKhXTfWJxr0uf-ORwamukqykxQMGE6n3bpuPd3eSm3bmtJR0Q5cZLAehHZknG86WlBv5HWOdf8peg7gLQjB4-LK1eMDRT3UwMa3PPS47HWOLghHJ3jx1z-E2pU3OnzvfEr-3lulZgeogrGfKlKFunuyMn53RsoAMwah0xTtnRWYmaZwFbqKjajkQhgPznVHmqJLOSVg_sFQuXLbftt_fSabblgsM_8R8qQZdNEhQPwu5Qpaiifd2WBt__-Zoo5wrbXMurmFKSzvxX8abW-l3gz_09xS2wjNhu2Pg0G7BubGB-UKlYTGfUusompwU0thPIexnpQ6ppQbGcQJsiBgWhhS0HfQlYC_YjPO2RfZGmMfyiqToRBR6kIlmRLZ8iQorQWzhKOzxPPZUb0a_c1B-furFlTzNxkRTrp7DF32VogyamUf3CkWKjBj33XVUzLFidN_IvQ8M1SC1dS3hUxLOHQz_oCJDkSkXGyFxnB3HQRhdL8sHSElwJfe9JDzJxNfebY3Idj174kfroYvnNzuwHvc6wI6-41dSbhaW_whgd0RV3Tql9We9xhLawAPI7mzPjC6aVQzt_-1TOqMitHF-CZ5gsbwAorAYL4WGAKX9e9koO7vgGMnU2VjrTztJHAsrPokum-lbZLD9FezvmKJYAUfAsLCMckAJbQCAsRONdGayDkgg9Nqp7qGLwFQcOG3juC7DcpZgSlEnRUSR09t-DXDTjjx0LRyOJW6suUu8f9UWaiQrhOJh63HkHTXzmY0xTC8ZXZN2n14ACW-8pRJ9vfjYZLGaAb5OrFP0z4kPB6IO6JC1mMJIPlb11Ehmik2UwNCtc1cBBolZMM1WAMKzBE9V-ZvIKr72ekhAFmAwTJQXRS5ZNy10DjPN94wgYKu8gqroZZPc71cYTKd3yMDLr_29Ti6Sd0k3GWn9_SYXK87VvKSCSFmLd3rqdxoeIfUGVrl3tufNNWI8dbZ6bINWTUIO8wr-P15qqFym52BDZT_VDJdtq5MQqFznbAWb3sgrL5sxiUq05ClHaVfwFn68vRMsToN3DDxQYjRHw1UcUuafayVmo-d0d_-Q2gwYvUBBIw7Z_c3WKRFyslGl4biunkMMr833v0n3pPp9a3NQaIXV5RSKu_d12PF0c7F6GAmNqC5zk5o1tl7LF7eo-Pz1TQIbpkpG-6f3bsat3RfUcdmJG-egxHw1_O-W4PhiF4Z_Udbi7eJBef_pAY3X7YgUDcOiFydZ0Xr09BWYNHsU66C-78ZrG79D004sF5WJrHA-AUucZh16leiuT0xWl6pVjmuBht91acz0I5uTKbxxu79Zc1Ezig-1Jj1EVKlquWQwZGDG8EkfiaVWDkulLcDp7UGXpjvYtCbMXd681Fw8sRBlSqtjCt4vP94i-OWmK9kqqhO_Uek3sAZ_H1FC34GWaqM-auYPuEi18EOJxVtex6DApYmKeIj-nA3wZ_0G00?></g></svg>